<svg width="913" height="913" viewBox="0 0 913 913" fill="none" xmlns="http://www.w3.org/2000/svg">
    <g filter="url(#filter0_d_2244_119)">
        <rect x="4" width="905" height="905" rx="59" fill="#91FF8D"/>
        <rect x="4" width="905" height="905" rx="59" fill="black" fill-opacity="0.2"/>
    </g>
    <path d="M450.165 166.659C442.565 169.059 440.298 170.659 430.832 180.259C416.165 195.192 408.298 210.392 391.898 255.726C381.098 285.592 370.965 306.392 362.965 315.326C359.365 319.326 353.232 323.992 347.632 326.926C332.432 334.792 321.098 337.059 266.165 343.059C231.232 346.792 219.632 351.326 211.365 363.992C200.965 380.126 197.898 394.926 201.365 411.459C206.165 434.259 219.765 454.259 244.165 474.392C270.032 495.592 303.498 509.592 346.832 517.192C369.632 521.192 403.098 521.459 422.832 517.859C469.632 509.326 512.698 485.859 543.365 451.859C548.698 445.859 552.832 440.659 552.565 440.392C552.298 439.992 546.698 442.392 540.032 445.592C507.232 461.859 476.832 469.059 442.165 469.059C425.098 469.059 418.965 468.526 407.098 465.726C381.498 459.992 363.365 448.526 356.032 433.592C352.965 427.326 352.565 425.192 353.232 418.392C354.032 409.059 358.698 400.126 365.365 395.059C377.898 385.459 400.565 383.192 443.498 387.059C479.232 390.259 514.032 390.259 528.832 387.192C546.298 383.326 562.965 375.059 573.765 364.526C579.898 358.392 582.965 356.259 583.765 357.459C586.565 361.992 593.365 400.659 595.365 423.726C597.232 445.592 596.165 503.059 593.498 527.726C591.365 547.726 586.832 578.126 585.898 579.059C585.632 579.326 579.765 579.059 572.832 578.392C544.565 575.726 522.298 583.326 505.765 601.059C492.565 615.326 483.498 636.526 483.498 653.059C483.632 671.859 491.098 688.659 506.165 703.726C522.698 720.392 540.298 727.726 563.232 727.726C578.698 727.726 589.632 724.392 602.698 715.592C618.298 705.192 628.565 692.526 640.032 669.459C657.098 635.059 665.765 593.859 667.098 540.392C667.898 508.926 666.565 485.592 662.698 460.659L660.698 447.592L668.698 433.326C709.898 359.326 726.432 258.926 702.032 231.059C693.232 221.059 677.365 219.726 661.632 227.592C656.298 230.392 646.432 237.859 635.498 247.592C610.698 269.459 600.698 277.326 590.832 282.126C579.632 287.726 569.765 289.592 560.165 287.859C551.765 286.259 550.165 285.459 542.832 279.726C531.632 270.792 523.898 257.726 510.032 224.126C497.365 193.192 491.765 182.792 483.498 174.259C472.698 163.326 465.765 161.726 450.165 166.659Z"
          fill="black"/>
    <path d="M497.498 507.326C473.232 521.992 435.765 534.126 400.832 538.392C393.898 539.326 386.032 540.392 383.632 540.926L378.965 541.726L376.698 555.059C373.498 572.926 367.632 596.392 365.632 599.192C364.032 601.326 363.232 601.192 353.632 597.859C327.898 589.059 297.632 591.859 278.165 605.059C249.232 624.792 237.232 657.992 247.498 690.792C254.698 713.592 270.032 729.192 293.898 738.126C301.632 740.926 305.232 741.459 320.165 741.592C338.698 741.726 347.498 739.859 362.032 732.392C378.698 723.992 395.232 706.926 407.365 685.859C422.565 659.192 434.165 618.526 437.632 579.726L438.432 569.726L472.698 536.126C491.498 517.592 506.565 502.526 506.165 502.526C505.765 502.526 501.898 504.659 497.498 507.326Z"
          fill="black"/>
    <defs>
        <filter id="filter0_d_2244_119" x="0" y="0" width="913" height="913" filterUnits="userSpaceOnUse"
                color-interpolation-filters="sRGB">
            <feFlood flood-opacity="0" result="BackgroundImageFix"/>
            <feColorMatrix in="SourceAlpha" type="matrix" values="0 0 0 0 0 0 0 0 0 0 0 0 0 0 0 0 0 0 127 0"
                           result="hardAlpha"/>
            <feOffset dy="4"/>
            <feGaussianBlur stdDeviation="2"/>
            <feComposite in2="hardAlpha" operator="out"/>
            <feColorMatrix type="matrix" values="0 0 0 0 0 0 0 0 0 0 0 0 0 0 0 0 0 0 0.25 0"/>
            <feBlend mode="normal" in2="BackgroundImageFix" result="effect1_dropShadow_2244_119"/>
            <feBlend mode="normal" in="SourceGraphic" in2="effect1_dropShadow_2244_119" result="shape"/>
        </filter>
    </defs>
</svg>