<svg width="16" height="16" viewBox="0 0 514 578" fill="none" xmlns="http://www.w3.org/2000/svg">
    <path d="M250.165 2.65889C242.565 5.05889 240.298 6.65889 230.832 16.2589C216.165 31.1922 208.298 46.3922 191.898 91.7256C181.098 121.592 170.965 142.392 162.965 151.326C159.365 155.326 153.232 159.992 147.632 162.926C132.432 170.792 121.098 173.059 66.165 179.059C31.2317 182.792 19.6317 187.326 11.365 199.992C0.965006 216.126 -2.10166 230.926 1.36501 247.459C6.16501 270.259 19.765 290.259 44.165 310.392C70.0317 331.592 103.498 345.592 146.832 353.192C169.632 357.192 203.098 357.459 222.832 353.859C269.632 345.326 312.698 321.859 343.365 287.859C348.698 281.859 352.832 276.659 352.565 276.392C352.298 275.992 346.698 278.392 340.032 281.592C307.232 297.859 276.832 305.059 242.165 305.059C225.098 305.059 218.965 304.526 207.098 301.726C181.498 295.992 163.365 284.526 156.032 269.592C152.965 263.326 152.565 261.192 153.232 254.392C154.032 245.059 158.698 236.126 165.365 231.059C177.898 221.459 200.565 219.192 243.498 223.059C279.232 226.259 314.032 226.259 328.832 223.192C346.298 219.326 362.965 211.059 373.765 200.526C379.898 194.392 382.965 192.259 383.765 193.459C386.565 197.992 393.365 236.659 395.365 259.726C397.232 281.592 396.165 339.059 393.498 363.726C391.365 383.726 386.832 414.126 385.898 415.059C385.632 415.326 379.765 415.059 372.832 414.392C344.565 411.726 322.298 419.326 305.765 437.059C292.565 451.326 283.498 472.526 283.498 489.059C283.632 507.859 291.098 524.659 306.165 539.726C322.698 556.392 340.298 563.726 363.232 563.726C378.698 563.726 389.632 560.392 402.698 551.592C418.298 541.192 428.565 528.526 440.032 505.459C457.098 471.059 465.765 429.859 467.098 376.392C467.898 344.926 466.565 321.592 462.698 296.659L460.698 283.592L468.698 269.326C509.898 195.326 526.432 94.9256 502.032 67.0589C493.232 57.0589 477.365 55.7256 461.632 63.5922C456.298 66.3922 446.432 73.8589 435.498 83.5922C410.698 105.459 400.698 113.326 390.832 118.126C379.632 123.726 369.765 125.592 360.165 123.859C351.765 122.259 350.165 121.459 342.832 115.726C331.632 106.792 323.898 93.7256 310.032 60.1256C297.365 29.1922 291.765 18.7922 283.498 10.2589C272.698 -0.674443 265.765 -2.27444 250.165 2.65889Z"
          fill="#91FF8D"/>
    <path d="M297.498 343.326C273.232 357.992 235.765 370.126 200.832 374.392C193.898 375.326 186.032 376.392 183.632 376.926L178.965 377.726L176.698 391.059C173.498 408.926 167.632 432.392 165.632 435.192C164.032 437.326 163.232 437.192 153.632 433.859C127.898 425.059 97.6317 427.859 78.1651 441.059C49.2317 460.792 37.2317 493.992 47.4984 526.792C54.6984 549.592 70.0317 565.192 93.8984 574.126C101.632 576.926 105.232 577.459 120.165 577.592C138.698 577.726 147.498 575.859 162.032 568.392C178.698 559.992 195.232 542.926 207.365 521.859C222.565 495.192 234.165 454.526 237.632 415.726L238.432 405.726L272.698 372.126C291.498 353.592 306.565 338.526 306.165 338.526C305.765 338.526 301.898 340.659 297.498 343.326Z"
          fill="#91FF8D"/>
</svg>